<?xml version="1.0" encoding="iso-8859-1"?>
<!-- Generator: Adobe Illustrator 19.0.0, SVG Export Plug-In . SVG Version: 6.00 Build 0)  -->
<svg version="1.1" id="Capa_1" xmlns="http://www.w3.org/2000/svg" xmlns:xlink="http://www.w3.org/1999/xlink" x="0px" y="0px"
	 viewBox="0 0 423.184 423.184" style="enable-background:new 0 0 423.184 423.184;" xml:space="preserve">
<path style="fill:#D4E1F4;" d="M124.604,157.78c0,30.302,25.078,55.38,55.38,55.38c-39.706,0-71.576,31.869-71.576,71.576v37.616
	l-0.522,1.045c-54.335-26.122-91.951-81.502-91.951-145.763c0-89.339,72.62-161.959,161.959-161.959s161.959,72.62,161.959,161.959
	c0,44.931-18.286,85.159-47.543,114.416c-12.016,12.016-25.6,21.943-40.751,29.78v-37.094c0-19.853-7.837-37.616-20.898-50.678
	c-13.061-13.061-30.824-20.898-50.678-20.898c30.302,0,55.38-24.555,55.38-55.38s-25.078-55.38-55.38-55.38
	C149.159,102.4,124.604,127.478,124.604,157.78z"/>
<g>
	<path style="fill:#4DCFE0;" d="M108.408,322.351v-37.616c0-39.706,31.869-71.576,71.576-71.576
		c19.853,0,37.616,7.837,50.678,20.898c13.061,13.061,20.898,30.825,20.898,50.678v37.094
		c-21.943,11.494-47.02,17.763-73.665,17.763c-25.078,0-49.11-5.747-70.008-16.196L108.408,322.351z"/>
	<path style="fill:#4DCFE0;" d="M179.984,102.4c30.302,0,55.38,24.555,55.38,55.38s-25.078,55.38-55.38,55.38
		s-55.38-25.078-55.38-55.38S149.159,102.4,179.984,102.4z"/>
</g>
<path style="fill:#3A2C51;" d="M418.22,396.016l-104.49-104.49c26.645-31.869,41.796-72.098,41.796-113.894
	C355.527,79.935,275.592,0,177.894,0S0.261,79.935,0.261,177.633c0,67.396,39.706,130.612,100.833,159.869
	c23.51,11.494,50.155,17.763,76.8,17.763c28.735,0,56.424-6.792,80.98-19.331c12.016-6.269,22.988-13.584,32.914-21.943
	l104.49,104.49c3.135,3.135,7.314,4.702,10.971,4.702c3.657,0,7.837-1.567,10.971-4.702
	C424.49,412.212,424.49,402.286,418.22,396.016z M31.608,177.633c0-80.457,65.829-146.286,146.286-146.286
	S324.18,97.175,324.18,177.633c0,39.184-15.151,75.755-42.841,103.445c-4.18,4.18-8.882,8.359-14.106,12.016v-8.359
	c0-23.51-8.882-45.453-25.6-61.649c-4.702-4.702-9.404-8.359-15.151-12.016c14.629-13.061,24.033-31.869,24.033-53.29
	c0-39.184-31.869-71.053-71.053-71.053s-71.053,31.869-71.053,71.053c0,21.42,9.404,40.229,24.555,53.29
	c-24.555,15.673-40.751,42.841-40.751,73.665v11.494C55.118,269.061,31.608,224.653,31.608,177.633z M140.278,157.78
	c0-21.943,17.763-39.706,39.706-39.706s39.706,17.763,39.706,39.706s-17.763,39.706-39.706,39.706
	C158.563,197.486,140.278,179.2,140.278,157.78z M124.082,313.469v-28.735c0-30.825,25.078-55.902,55.902-55.902
	c15.151,0,29.257,5.747,39.706,16.196c10.449,10.449,16.196,24.555,16.196,39.706v27.167c-17.763,7.837-37.616,12.016-57.992,12.016
	C159.086,323.918,140.8,320.261,124.082,313.469z"/>
<g>
</g>
<g>
</g>
<g>
</g>
<g>
</g>
<g>
</g>
<g>
</g>
<g>
</g>
<g>
</g>
<g>
</g>
<g>
</g>
<g>
</g>
<g>
</g>
<g>
</g>
<g>
</g>
<g>
</g>
</svg>
